<?xml version="1.0" encoding="utf-8"?>
<!-- Generator: Adobe Illustrator 19.0.1, SVG Export Plug-In . SVG Version: 6.00 Build 0)  -->
<svg version="1.1" id="Layer_1" xmlns="http://www.w3.org/2000/svg" xmlns:xlink="http://www.w3.org/1999/xlink" x="0px" y="0px"
	 viewBox="0 0 200 200" style="enable-background:new 0 0 200 200;" xml:space="preserve">
<style type="text/css">
	.st0{fill:#F7A4AD;}
	.st1{fill:#A16FAF;}
	.st2{fill:#C36FAD;}
	.st3{fill:#CF86B9;}
	.st4{fill:#FFDD9C;}
	.st5{fill:#78CABA;}
</style>
<g>
	<polygon class="st1" points="142.8361,155.5301 58.1639,155.5301 45.4699,142.8361 45.4699,58.1639 58.1639,45.4699 
		142.8361,45.4699 155.5301,58.1639 155.5301,142.8361 	"/>
	<rect x="65.1649" y="65.1649" class="st2" width="70.6702" height="70.6702"/>
	<polygon class="st2" points="142.8361,45.4699 135.8351,65.1649 155.5301,58.1639 	"/>
	<polygon class="st2" points="45.4699,142.8361 65.1649,135.8351 58.1639,155.5301 	"/>
	<polygon class="st2" points="45.4699,58.1639 65.1649,65.1649 58.1639,45.4699 	"/>
	<polygon class="st2" points="142.8361,155.5301 135.8351,135.8351 155.5301,142.8361 	"/>
	<polygon class="st3" points="127.6842,135.8351 73.3158,135.8351 65.1649,127.6842 65.1649,73.3158 73.3158,65.1649 
		127.6842,65.1649 135.8351,73.3158 135.8351,127.6842 	"/>
</g>
</svg>
